<svg id="send_me_later_icon" viewBox="0 0 1024 1024" version="1.1" xmlns="http://www.w3.org/2000/svg" xmlns:xlink="http://www.w3.org/1999/xlink">
<g id="Canvas" transform="matrix(2 0 0 2 720 474)">
<clipPath id="clip-0" clip-rule="evenodd">
<path d="M -360 -237L 152 -237L 152 275L -360 275L -360 -237Z" fill="#FFFFFF"/>
</clipPath>
<g id="SendMeLater Icon" clip-path="url(#clip-0)">
<g id="background">
<use xlink:href="#path0_fill" transform="matrix(0.988717 -0.149792 0.149792 0.988717 -287.209 -102.214)" fill="#1A68FF"/>
</g>
<g id="envelope">
<g id="Vector">
<use xlink:href="#path1_stroke" transform="matrix(0.985443 -0.170005 0.170005 0.985443 -321 -61.4975)" fill="#0F100D"/>
</g>
<g id="Vector 2">
<use xlink:href="#path2_stroke" transform="matrix(0.985443 -0.170005 0.170005 0.985443 -285.847 -34.6578)" fill="#0F100D"/>
</g>
<g id="Vector 3">
<use xlink:href="#path3_stroke" transform="matrix(0.985443 -0.170005 0.170005 0.985443 -34.9923 31.6611)" fill="#0F100D"/>
</g>
<g id="Vector 3.1">
<use xlink:href="#path3_stroke" transform="matrix(-0.985443 0.170005 0.170005 0.985443 -185.975 57.708)" fill="#0F100D"/>
</g>
</g>
</g>
</g>
<defs>
<path id="path0_fill" d="M 332.748 0L 33 0C 14.7746 0 0 14.7746 0 33L 0 218.426C 0 236.652 14.7746 251.426 33 251.426L 332.748 251.426C 350.973 251.426 365.748 236.652 365.748 218.426L 365.748 33C 365.748 14.7746 350.973 0 332.748 0Z"/>
<path id="path1_stroke" d="M 33 7L 344.222 7L 344.222 -7L 33 -7L 33 7ZM 370.222 33L 370.222 226.425L 384.222 226.425L 384.222 33L 370.222 33ZM 344.222 252.425L 33 252.425L 33 266.425L 344.222 266.425L 344.222 252.425ZM 7 226.425L 7 33L -7 33L -7 226.425L 7 226.425ZM 33 252.425C 18.6406 252.425 7 240.785 7 226.425L -7 226.425C -7 248.517 10.9086 266.425 33 266.425L 33 252.425ZM 370.222 226.425C 370.222 240.785 358.581 252.425 344.222 252.425L 344.222 266.425C 366.313 266.425 384.222 248.517 384.222 226.425L 370.222 226.425ZM 344.222 7C 358.581 7 370.222 18.6406 370.222 33L 384.222 33C 384.222 10.9086 366.313 -7 344.222 -7L 344.222 7ZM 33 -7C 10.9086 -7 -7 10.9086 -7 33L 7 33C 7 18.6406 18.6406 7 33 7L 33 -7Z"/>
<path id="path2_stroke" d="M 4.5606 -5.31046C 1.62772 -7.8292 -2.79171 -7.49348 -5.31046 -4.5606C -7.8292 -1.62772 -7.49348 2.79171 -4.5606 5.31046L 4.5606 -5.31046ZM 320.322 5.36366C 323.285 2.87953 323.672 -1.53564 321.188 -4.49791C 318.704 -7.46017 314.289 -7.84778 311.327 -5.36366L 320.322 5.36366ZM 134.787 115.754L 130.226 121.065L 134.787 115.754ZM -4.5606 5.31046L 130.226 121.065L 139.347 110.444L 4.5606 -5.31046L -4.5606 5.31046ZM 181.989 121.369L 320.322 5.36366L 311.327 -5.36366L 172.993 110.641L 181.989 121.369ZM 130.226 121.065C 145.08 133.821 166.986 133.95 181.989 121.369L 172.993 110.641C 163.241 118.819 149.002 118.736 139.347 110.444L 130.226 121.065Z"/>
<path id="path3_stroke" d="M 5.23049 -4.65209C 2.66121 -7.54081 -1.76337 -7.79977 -4.65209 -5.23049C -7.54081 -2.66121 -7.79977 1.76337 -5.23049 4.65209L 5.23049 -4.65209ZM 77.4854 97.6521C 80.0547 100.541 84.4793 100.8 87.368 98.2305C 90.2567 95.6612 90.5157 91.2366 87.9464 88.3479L 77.4854 97.6521ZM -5.23049 4.65209L 77.4854 97.6521L 87.9464 88.3479L 5.23049 -4.65209L -5.23049 4.65209Z"/>
</defs>
</svg>
